<mxfile host="65bd71144e">
    <diagram id="1tGT_kyE3gS5Zs4tL-Q0" name="Page-1">
        <mxGraphModel dx="2049" dy="789" grid="1" gridSize="10" guides="1" tooltips="1" connect="1" arrows="1" fold="1" page="1" pageScale="1" pageWidth="1169" pageHeight="827" math="0" shadow="0">
            <root>
                <mxCell id="0"/>
                <mxCell id="1" parent="0"/>
                <mxCell id="5" value="CONDITIONED_WITH" style="edgeStyle=none;html=1;" parent="1" source="2" target="4" edge="1">
                    <mxGeometry relative="1" as="geometry"/>
                </mxCell>
                <mxCell id="35" value="EXECUTES" style="edgeStyle=none;html=1;" parent="1" source="2" target="32" edge="1">
                    <mxGeometry relative="1" as="geometry"/>
                </mxCell>
                <mxCell id="2" value="&lt;b&gt;DbTrigger&lt;/b&gt;&lt;br&gt;- name: &quot;On created TimeTrigger&quot;&lt;br&gt;- active: true" style="ellipse;whiteSpace=wrap;html=1;aspect=fixed;fillColor=#e3c800;fontColor=#000000;strokeColor=#B09500;" parent="1" vertex="1">
                    <mxGeometry x="80" y="440" width="120" height="120" as="geometry"/>
                </mxCell>
                <mxCell id="22" value="DEFINED_BY" style="edgeStyle=none;html=1;" parent="1" source="4" target="19" edge="1">
                    <mxGeometry relative="1" as="geometry"/>
                </mxCell>
                <mxCell id="36" value="PROVIDES_VALUE" style="edgeStyle=none;html=1;" parent="1" source="4" target="33" edge="1">
                    <mxGeometry relative="1" as="geometry"/>
                </mxCell>
                <mxCell id="4" value="&lt;b&gt;CreatedNode&lt;/b&gt;" style="ellipse;whiteSpace=wrap;html=1;aspect=fixed;fillColor=#e3c800;fontColor=#000000;strokeColor=#B09500;" parent="1" vertex="1">
                    <mxGeometry x="80" y="240" width="120" height="120" as="geometry"/>
                </mxCell>
                <mxCell id="6" value="CONDITIONED_WITH" style="edgeStyle=none;html=1;" parent="1" source="7" target="8" edge="1">
                    <mxGeometry relative="1" as="geometry"/>
                </mxCell>
                <mxCell id="28" value="EXECUTES" style="edgeStyle=none;html=1;" parent="1" source="7" target="25" edge="1">
                    <mxGeometry relative="1" as="geometry"/>
                </mxCell>
                <mxCell id="7" value="&lt;b&gt;DbTrigger&lt;/b&gt;&lt;br&gt;- name: &quot;On modified TimeTrigger&quot;&lt;br&gt;- active: true" style="ellipse;whiteSpace=wrap;html=1;aspect=fixed;fillColor=#e3c800;fontColor=#000000;strokeColor=#B09500;" parent="1" vertex="1">
                    <mxGeometry x="560" y="440" width="120" height="120" as="geometry"/>
                </mxCell>
                <mxCell id="21" value="DEFINED_BY" style="edgeStyle=none;html=1;" parent="1" source="8" target="19" edge="1">
                    <mxGeometry relative="1" as="geometry"/>
                </mxCell>
                <mxCell id="29" value="PROVIDES_VALUE" style="edgeStyle=none;html=1;" parent="1" source="8" target="26" edge="1">
                    <mxGeometry relative="1" as="geometry"/>
                </mxCell>
                <mxCell id="8" value="&lt;b&gt;ModifiedNode&lt;/b&gt;" style="ellipse;whiteSpace=wrap;html=1;aspect=fixed;fillColor=#e3c800;fontColor=#000000;strokeColor=#B09500;" parent="1" vertex="1">
                    <mxGeometry x="560" y="240" width="120" height="120" as="geometry"/>
                </mxCell>
                <mxCell id="9" value="CONDITIONED_WITH" style="edgeStyle=none;html=1;" parent="1" source="10" target="11" edge="1">
                    <mxGeometry relative="1" as="geometry"/>
                </mxCell>
                <mxCell id="17" value="EXECUTES" style="edgeStyle=none;html=1;" parent="1" source="10" target="12" edge="1">
                    <mxGeometry relative="1" as="geometry"/>
                </mxCell>
                <mxCell id="10" value="&lt;b&gt;DbTrigger&lt;/b&gt;&lt;br&gt;- name: &quot;On deleted TimeTrigger&quot;&lt;br&gt;- active: true" style="ellipse;whiteSpace=wrap;html=1;aspect=fixed;fillColor=#e3c800;fontColor=#000000;strokeColor=#B09500;" parent="1" vertex="1">
                    <mxGeometry x="1040" y="440" width="120" height="120" as="geometry"/>
                </mxCell>
                <mxCell id="18" value="PROVIDES_VALUE" style="edgeStyle=none;html=1;" parent="1" source="11" target="13" edge="1">
                    <mxGeometry relative="1" as="geometry"/>
                </mxCell>
                <mxCell id="20" value="DEFINED_BY" style="edgeStyle=none;html=1;" parent="1" source="11" target="19" edge="1">
                    <mxGeometry relative="1" as="geometry"/>
                </mxCell>
                <mxCell id="11" value="&lt;b&gt;DeletedNode&lt;/b&gt;" style="ellipse;whiteSpace=wrap;html=1;aspect=fixed;fillColor=#e3c800;fontColor=#000000;strokeColor=#B09500;" parent="1" vertex="1">
                    <mxGeometry x="1040" y="240" width="120" height="120" as="geometry"/>
                </mxCell>
                <mxCell id="14" value="HAS_INPUT" style="edgeStyle=none;html=1;" parent="1" source="12" target="13" edge="1">
                    <mxGeometry relative="1" as="geometry"/>
                </mxCell>
                <mxCell id="15" value="IMPLEMENTED" style="edgeStyle=none;html=1;" parent="1" source="12" target="16" edge="1">
                    <mxGeometry relative="1" as="geometry">
                        <mxPoint x="1710" y="370" as="targetPoint"/>
                    </mxGeometry>
                </mxCell>
                <mxCell id="12" value="&lt;b&gt;Function&lt;/b&gt;&lt;br&gt;- name: &quot;TimeTriggerDeleted&quot;" style="ellipse;whiteSpace=wrap;html=1;aspect=fixed;fillColor=#6d8764;fontColor=#ffffff;strokeColor=#3A5431;" parent="1" vertex="1">
                    <mxGeometry x="1040" y="640" width="120" height="120" as="geometry"/>
                </mxCell>
                <mxCell id="13" value="&lt;b&gt;Input&lt;/b&gt;&lt;br&gt;- name: &quot;triggerUuid&quot;" style="ellipse;whiteSpace=wrap;html=1;aspect=fixed;fillColor=#6d8764;fontColor=#ffffff;strokeColor=#3A5431;" parent="1" vertex="1">
                    <mxGeometry x="1280" y="640" width="120" height="120" as="geometry"/>
                </mxCell>
                <mxCell id="16" value="&lt;b&gt;NativeCall&lt;/b&gt;&lt;br&gt;- cypher: &quot;CALL custom.trigger.timeTriggerDeleted(triggerUuid) YIELD value RETURN *&quot;" style="ellipse;whiteSpace=wrap;html=1;aspect=fixed;fillColor=#6d8764;fontColor=#ffffff;strokeColor=#3A5431;" parent="1" vertex="1">
                    <mxGeometry x="1040" y="840" width="120" height="120" as="geometry"/>
                </mxCell>
                <mxCell id="19" value="&lt;b&gt;&lt;font style=&quot;font-size: 13px&quot; color=&quot;#000000&quot;&gt;@@NodeDef&lt;br&gt;&lt;/font&gt;&lt;/b&gt;&lt;span style=&quot;color: rgb(0 , 0 , 0) ; font-size: 13px&quot;&gt;- name: &quot;TimeTrigger&quot;&lt;br&gt;&lt;/span&gt;&lt;font color=&quot;#000000&quot;&gt;&lt;span style=&quot;font-size: 13px&quot;&gt;- uuid: &quot;1cfd1aaf-eb31-4adb-9abb-1c9ba168a6f5&quot;&lt;/span&gt;&lt;br&gt;&lt;/font&gt;" style="ellipse;whiteSpace=wrap;html=1;aspect=fixed;direction=west;strokeColor=#9673a6;fillColor=#CCFF99;" parent="1" vertex="1">
                    <mxGeometry x="560" y="40" width="120" height="120" as="geometry"/>
                </mxCell>
                <mxCell id="23" value="HAS_INPUT" style="edgeStyle=none;html=1;" parent="1" source="25" target="26" edge="1">
                    <mxGeometry relative="1" as="geometry"/>
                </mxCell>
                <mxCell id="24" value="IMPLEMENTED" style="edgeStyle=none;html=1;" parent="1" source="25" target="27" edge="1">
                    <mxGeometry relative="1" as="geometry">
                        <mxPoint x="1230" y="370" as="targetPoint"/>
                    </mxGeometry>
                </mxCell>
                <mxCell id="25" value="&lt;b&gt;Function&lt;/b&gt;&lt;br&gt;- name: &quot;TimeTriggerModified&quot;" style="ellipse;whiteSpace=wrap;html=1;aspect=fixed;fillColor=#6d8764;fontColor=#ffffff;strokeColor=#3A5431;" parent="1" vertex="1">
                    <mxGeometry x="560" y="640" width="120" height="120" as="geometry"/>
                </mxCell>
                <mxCell id="26" value="&lt;b&gt;Input&lt;/b&gt;&lt;br&gt;- name: &quot;triggerUuid&quot;" style="ellipse;whiteSpace=wrap;html=1;aspect=fixed;fillColor=#6d8764;fontColor=#ffffff;strokeColor=#3A5431;" parent="1" vertex="1">
                    <mxGeometry x="800" y="640" width="120" height="120" as="geometry"/>
                </mxCell>
                <mxCell id="27" value="&lt;b&gt;NativeCall&lt;/b&gt;&lt;br&gt;- cypher: &quot;CALL custom.trigger.timeTriggerModified(triggerUuid) YIELD value RETURN *&quot;" style="ellipse;whiteSpace=wrap;html=1;aspect=fixed;fillColor=#6d8764;fontColor=#ffffff;strokeColor=#3A5431;" parent="1" vertex="1">
                    <mxGeometry x="560" y="840" width="120" height="120" as="geometry"/>
                </mxCell>
                <mxCell id="30" value="HAS_INPUT" style="edgeStyle=none;html=1;" parent="1" source="32" target="33" edge="1">
                    <mxGeometry relative="1" as="geometry"/>
                </mxCell>
                <mxCell id="31" value="IMPLEMENTED" style="edgeStyle=none;html=1;" parent="1" source="32" target="34" edge="1">
                    <mxGeometry relative="1" as="geometry">
                        <mxPoint x="750" y="370" as="targetPoint"/>
                    </mxGeometry>
                </mxCell>
                <mxCell id="32" value="&lt;b&gt;Function&lt;/b&gt;&lt;br&gt;- name: &quot;TimeTriggerCreated&quot;" style="ellipse;whiteSpace=wrap;html=1;aspect=fixed;fillColor=#6d8764;fontColor=#ffffff;strokeColor=#3A5431;" parent="1" vertex="1">
                    <mxGeometry x="80" y="640" width="120" height="120" as="geometry"/>
                </mxCell>
                <mxCell id="33" value="&lt;b&gt;Input&lt;/b&gt;&lt;br&gt;- name: &quot;triggerUuid&quot;" style="ellipse;whiteSpace=wrap;html=1;aspect=fixed;fillColor=#6d8764;fontColor=#ffffff;strokeColor=#3A5431;" parent="1" vertex="1">
                    <mxGeometry x="320" y="640" width="120" height="120" as="geometry"/>
                </mxCell>
                <mxCell id="34" value="&lt;b&gt;NativeCall&lt;/b&gt;&lt;br&gt;- cypher: &quot;CALL custom.trigger.timeTriggerCreated(triggerUuid) YIELD value RETURN *&quot;" style="ellipse;whiteSpace=wrap;html=1;aspect=fixed;fillColor=#6d8764;fontColor=#ffffff;strokeColor=#3A5431;" parent="1" vertex="1">
                    <mxGeometry x="80" y="840" width="120" height="120" as="geometry"/>
                </mxCell>
            </root>
        </mxGraphModel>
    </diagram>
</mxfile>